<svg xmlns="http://www.w3.org/2000/svg" version="1.1" xmlns:xlink="http://www.w3.org/1999/xlink" xmlns:svgjs="http://svgjs.dev/svgjs" width="100%" height="100%" viewBox="0 0 1000 600"><rect width="1000" height="600" x="0" y="0" fill="#ffffff"/><g><circle r="166.66666666666666" cx="286.8975168863932" cy="309.11975867183133" fill="#0047a0" transform="matrix(1.0396665621472363,0,0,1.0396665621472363,0,-21.381468897938802)"/><path d="M299.88793628898736 268.7943087267299L299.88793628898736 363.65609967860144Q300.1219978105464 368.705141072233 305.43853808595975 369.9088860402511L305.43853808595975 369.9088860402511L325.6347036604858 374.02168134764634Q330.95124393589913 374.9579274338827 330.95124393589913 379.538845784396L330.95124393589913 379.538845784396Q330.95124393589913 384.11976413490936 324.9325190958086 384.11976413490936L324.9325190958086 384.11976413490936L248.86252458910863 384.11976413490936Q242.8437997490181 384.11976413490936 242.8437997490181 379.538845784396L242.8437997490181 379.538845784396Q242.8437997490181 375.22542631566444 248.36096418576776 374.02168134764634L248.36096418576776 374.02168134764634L268.8246286420756 370.14294756181016Q274.1411689174889 368.93920259379206 274.375230439048 363.65609967860144L274.375230439048 363.65609967860144L274.375230439048 260.1340324290441Q274.375230439048 254.34936911051264 268.59056712051654 254.34936911051264L268.59056712051654 254.34936911051264L268.1224440773984 254.34936911051264L255.34937247231736 255.55311407853074Q252.70782101472204 255.55311407853074 250.9022035626949 254.7171800729626Q249.09658611066772 253.88124606739447 249.09658611066772 250.7381342064583L249.09658611066772 250.7381342064583Q249.09658611066772 245.92315433438588 254.3796890258583 244.4853478448087L254.3796890258583 244.4853478448087L293.40108840577864 234.62132657910473Q294.60483337379674 234.11976617576386 295.4407673793649 234.11976617576386Q296.27670138493306 234.11976617576386 297.2463848313921 234.11976617576386L297.2463848313921 234.11976617576386Q298.9182528425283 234.11976617576386 299.41981324586925 234.62132657910473L299.41981324586925 234.62132657910473Q300.62355821388735 235.82507154712283 300.62355821388735 240.40598989763623L300.62355821388735 240.40598989763623L299.88793628898736 268.7943087267299Z " fill="#ffffff" transform="matrix(1.0396665621472363,0,0,1.0396665621472363,0,-21.381468897938802)"/><path d="M659.5543988184963 355.2038107316905L660.0867427305221 345.62162031522644L660.0867427305221 310.9466736819105L678.0170535855725 310.9466736819105Q680.8239578489812 310.9466736819105 683.0743207498175 310.24494761605837L683.0743207498175 310.24494761605837Q684.985919343001 309.7368011545792 686.6555434307182 308.7689031327142Q688.3009700678888 307.8252025613957 688.3009700678888 305.8894065176656L688.3009700678888 305.8894065176656Q688.3009700678888 301.02571895779363 683.945428969496 299.6222668260893Q679.5898878711032 298.2430121449316 670.3706592128385 298.2430121449316L670.3706592128385 298.2430121449316Q670.007697454639 298.2430121449316 669.3059713887869 299.0173305624236Q668.6284427734813 299.7916489799157 667.3217804439636 300.75954700178073Q666.0151181144457 301.7274450236458 664.1761118729021 302.67114559496423Q662.3371056313584 303.6390436168293 660.0867427305221 304.1471900783084L660.0867427305221 304.1471900783084L660.0867427305221 253.45353118312573Q660.0867427305221 250.6708243702637 660.9578509502007 247.7913277552151Q661.8289591698793 244.91183114016656 661.8289591698793 244.4036846786874L661.8289591698793 244.4036846786874Q661.8289591698793 243.36319430518245 660.8610611480142 242.4920860855039Q659.9173605766958 241.62097786582532 657.5460104231264 240.55629004177376Q655.1988577201035 239.5157996682688 651.1094885777237 238.3059271409375Q647.0201194353438 237.07185716305952 640.9223618975939 235.52322032807544L640.9223618975939 235.52322032807544Q637.9460754803588 234.65211210839686 635.0907763158569 234.38594015238397Q632.2112797008083 234.11976819637107 629.7673371955991 234.11976819637107L629.7673371955991 234.11976819637107Q626.2829043168848 234.11976819637107 624.0083439655019 234.82149426222327Q621.7579810646656 235.52322032807544 621.7579810646656 236.73309285540677L621.7579810646656 236.73309285540677Q628.5574646682677 240.0481435802946 632.3806618546347 242.39529628331738Q636.2038590410017 244.74244898634015 638.1396550847319 246.5814552278838Q640.0512536779154 248.39626401888077 640.4868077877546 250.06588810659804Q640.9223618975939 251.71131474376864 640.9223618975939 253.62291333695214L640.9223618975939 253.62291333695214L640.9223618975939 345.62162031522644Q640.9223618975939 384.11976413490936 647.3588837429966 384.11976413490936L647.3588837429966 384.11976413490936Q649.9722084020323 384.11976413490936 652.0773865995887 381.2402675198608Q654.1583673465987 378.38496835535886 655.7312016321293 374.10201960860593Q657.3040359176601 369.8432683123997 658.2477364889786 364.7860011481547Q659.2156345108436 359.7287339839097 659.5543988184963 355.2038107316905L659.5543988184963 355.2038107316905ZM603.8034727590687 258.5107983473707L603.8034727590687 258.5107983473707Q603.8034727590687 256.4298176003608 601.1901481000331 255.02636546865648Q598.5768234409974 253.62291333695214 596.1328809357881 253.62291333695214L596.1328809357881 253.62291333695214L585.8731619040184 253.45353118312573Q582.3887290253042 253.45353118312573 578.90429614659 253.01797707328646Q575.4198632678757 252.5824229634472 572.612959004467 252.1468688536079Q569.830252191605 251.71131474376864 568.015443400608 251.27576063392934Q566.1764371590643 250.84020652409006 565.8376728514115 250.50144221643728L565.8376728514115 250.50144221643728Q565.4747110932121 250.1384804582379 564.966564631733 250.1384804582379L564.966564631733 250.1384804582379Q564.6036028735336 250.1384804582379 563.4663226978421 250.50144221643728Q562.3532399726973 250.84020652409006 562.3532399726973 251.71131474376864L562.3532399726973 251.71131474376864Q562.3532399726973 253.11476687547298 564.0954564120544 255.12315527084297Q565.8376728514115 257.1073462156663 568.1848255544344 259.0431422593965Q570.5319782574571 260.95474085258 572.612959004467 262.2614031820978Q574.7181372020235 263.56806551161566 575.5892454217021 263.56806551161566L575.5892454217021 263.56806551161566L593.5195562767524 263.56806551161566Q603.8034727590687 263.56806551161566 603.8034727590687 258.5107983473707ZM629.4285728879463 274.8924723674369L629.4285728879463 274.8924723674369Q629.4285728879463 270.7063134228705 624.976241987367 269.73841540100545Q620.5239110867876 268.794714829687 608.8607399233136 268.794714829687L608.8607399233136 268.794714829687Q607.8202495498088 268.794714829687 606.9491413301301 269.6658230493656Q606.0780331104515 270.53693126904415 604.166434517268 271.5774216425491Q602.230638473538 272.617912016054 598.6736132431838 273.5858100379191Q595.0923905622831 274.5295106092375 588.4864865630541 274.72309021361053L588.4864865630541 274.72309021361053L563.030768588003 275.4006188289161Q561.990278214498 275.4006188289161 560.8529980388065 275.4974086311026Q559.7399153136616 275.5941984332891 558.8688070939832 275.5941984332891L558.8688070939832 275.5941984332891Q547.5444002381619 275.5941984332891 543.1888591397691 274.36012845541114Q538.8333180413763 273.1502559280798 539.7044262610548 273.1502559280798L539.7044262610548 273.1502559280798Q539.3414645028554 273.1502559280798 538.1315919755241 273.4164278840927Q536.8975219976462 273.65840238955894 536.8975219976462 274.5295106092375L536.8975219976462 274.5295106092375Q536.8975219976462 275.93296274094183 539.8738084148813 278.01394348795174Q542.8258973815697 280.1191216855083 546.5765022162968 282.0307202786918Q550.3271070510239 283.9423188718753 553.6421577759118 285.3457710035796Q556.9330110502531 286.7250256847373 557.6347371161052 286.7250256847373L557.6347371161052 286.7250256847373Q557.9976988743045 286.7250256847373 558.941399445623 285.95070726724526Q559.909297467488 285.1763888497532 562.1596603683244 284.20849082788817Q564.4342207197072 283.2405928060231 568.2574179060742 282.3694845863445Q572.1048125429879 281.498376366666 578.2025700807378 281.3289942128396L578.2025700807378 281.3289942128396L619.4834207132827 280.1191216855083Q620.3545289329613 280.1191216855083 622.0241530206786 280.0223318833217Q623.6695796578491 279.94973953168187 625.3150062950198 279.4173956196561Q626.984630382737 278.8850517076303 628.1945029100683 277.84456133412533Q629.4285728879463 276.8040709606204 629.4285728879463 274.8924723674369ZM619.14465640563 321.2305901642268L619.14465640563 321.2305901642268Q619.14465640563 314.9634504726505 616.4345419444078 309.2044572425534Q613.7486249337322 303.4696614630029 609.1269118793266 299.0173305624236Q604.5051988249209 294.56499966184435 598.5042310893575 291.8790826511688Q592.4790659032474 289.1689681899466 585.8731619040184 289.1689681899466L585.8731619040184 289.1689681899466Q579.2430604542427 289.1689681899466 573.2420927186793 291.8790826511688Q567.2169275325693 294.56499966184435 562.5952144781636 299.0173305624236Q557.9976988743045 303.4696614630029 555.2875844130824 309.2044572425534Q552.5774699518602 314.9634504726505 552.5774699518602 321.2305901642268L552.5774699518602 321.2305901642268Q552.5774699518602 327.6671120096295 555.2875844130824 333.42610523972667Q557.9976988743045 339.18509846982374 562.5226221265237 343.6132319198564Q567.0475453787428 348.06556282043573 573.1453029164928 350.6788874794714Q579.2430604542427 353.292212138507 585.8731619040184 353.292212138507L585.8731619040184 353.292212138507Q592.4790659032474 353.292212138507 598.5042310893575 350.6788874794714Q604.5051988249209 348.06556282043573 609.1269118793266 343.6132319198564Q613.7486249337322 339.18509846982374 616.4345419444078 333.42610523972667Q619.14465640563 327.6671120096295 619.14465640563 321.2305901642268ZM601.1901481000331 321.2305901642268L601.1901481000331 321.2305901642268Q601.1901481000331 325.5861312626196 600.2464475287146 329.77229020718596Q599.2785495068495 333.95844915175235 597.366950913666 337.1767100744537Q595.4553523204825 340.39497099715504 592.5758557054339 342.4033593925251Q589.6963590903854 344.41174778789514 585.8731619040184 344.41174778789514L585.8731619040184 344.41174778789514Q581.8563851132784 344.41174778789514 578.9768884982298 342.47595174416495Q576.0973918831812 340.56435315098145 574.2825830921843 337.24930242609366Q572.4435768506406 333.95844915175235 571.4998762793223 329.84488255882593Q570.5319782574571 325.755513416446 570.5319782574571 321.2305901642268L570.5319782574571 321.2305901642268Q570.5319782574571 316.3427051538082 571.4998762793223 311.9871640554154Q572.4435768506406 307.63162295702267 574.2825830921843 304.34076968268147Q576.0973918831812 301.02571895779363 578.9768884982298 299.0173305624236Q581.8563851132784 297.0089421670536 585.8731619040184 297.0089421670536L585.8731619040184 297.0089421670536Q589.6963590903854 297.0089421670536 592.6484480570739 299.0173305624236Q595.624734474309 301.02571895779363 597.4395432653059 304.4133620343214Q599.2785495068495 307.8252025613957 600.2464475287146 312.1807436597885Q601.1901481000331 316.5362847581813 601.1901481000331 321.2305901642268ZM793.0033385831421 327.1589655481504L793.0033385831421 327.1589655481504Q793.7050646489942 326.4572394822982 794.2374085610201 326.2878573284718L794.2374085610201 326.2878573284718L794.2374085610201 345.79100246905284Q794.2374085610201 384.11976413490936 800.6739304064228 384.11976413490936L800.6739304064228 384.11976413490936Q803.2872550654585 384.11976413490936 805.2956434608284 381.33705732204726Q807.3040318561983 378.55435050918527 808.8768661417292 374.1988094107925Q810.4255029767132 369.8432683123997 811.4901908007648 364.88279095034125Q812.5306811742697 359.8981161377361 812.8694454819225 355.3731928855169L812.8694454819225 355.3731928855169L813.4017893939483 345.79100246905284L813.4017893939483 311.1160558357369L831.3321002489986 311.1160558357369Q834.1390045124073 311.1160558357369 836.3893674132436 310.4385272204314L836.3893674132436 310.4385272204314Q838.3009660064271 309.9061833084056 839.9705900941443 308.9382852865405Q841.616016731315 307.9945847152221 841.616016731315 306.0829861220386L841.616016731315 306.0829861220386Q841.616016731315 301.19510111162003 837.2604756329221 299.7916489799157Q832.9049345345294 298.41239429875793 823.6857058762645 298.41239429875793L823.6857058762645 298.41239429875793Q822.814597656586 298.41239429875793 822.3790435467469 299.28350251843653Q821.9434894369075 300.1546107381151 821.1449735688687 301.19510111162003Q820.3706551513768 302.2355914851249 818.6284387120196 303.27608185862994Q816.8862222726625 304.34076968268147 813.4017893939483 304.6795339903342L813.4017893939483 304.6795339903342L813.4017893939483 253.45353118312573Q813.4017893939483 251.00958867791644 814.2728976136269 248.05749971122802Q815.1440058333054 245.10541074453954 815.1440058333054 244.57306683251377L815.1440058333054 244.57306683251377Q815.1440058333054 243.53257645900885 814.1761078114404 242.66146823933028Q813.2324072401219 241.79036001965173 810.8610570865525 240.74986964614678Q808.5139043835297 239.68518182209522 804.4245352411498 238.4753092947639Q800.33516609877 237.26543676743256 794.2374085610201 235.69260248190182L794.2374085610201 235.69260248190182Q791.261122143785 234.82149426222327 788.405822979283 234.55532230621037Q785.5263263642345 234.28915035019747 783.0823838590252 234.28915035019747L783.0823838590252 234.28915035019747Q779.5979509803109 234.28915035019747 777.323390628928 234.99087641604964Q775.0730277280918 235.69260248190182 775.0730277280918 236.90247500923314L775.0730277280918 236.90247500923314Q781.8725113316938 240.217525734121 785.6957085180609 242.56467843714375Q789.5189057044279 244.91183114016656 791.454701748158 246.75083738171017Q793.3663003413415 248.58984362325378 793.8018544511807 250.23527026042441Q794.2374085610201 251.88069689759502 794.2374085610201 253.81649294132512L794.2374085610201 253.81649294132512L794.2374085610201 323.50515051560967L790.3900139241065 324.5456408891147Q753.4647043899542 336.57177381078805 732.7274892714953 336.57177381078805L732.7274892714953 336.57177381078805Q731.5176167441639 336.57177381078805 730.9126804804982 335.7732579427494Q730.2835467662859 334.99893952525736 730.2835467662859 334.29721345940516L730.2835467662859 334.29721345940516L730.1141646124596 268.62533267586065Q730.1141646124596 267.22188054415625 730.3803365684724 265.74583606081205Q730.6465085244853 264.2697915774678 730.6465085244853 262.3339955337377L730.6465085244853 262.3339955337377Q730.6465085244853 261.12412300640636 730.3803365684724 260.2530147867278Q730.1141646124596 259.38190656704927 728.3719481731024 258.77697030338356Q726.6297317337453 258.1720340397179 723.0727065033913 257.6396901276921Q719.4914838224904 257.1073462156663 713.0549619770878 256.2362379959878L713.0549619770878 256.2362379959878L710.9497837795312 255.89747368833503Q709.2075673401741 255.72809153450862 707.6347330546434 255.63130173232213Q706.0860962196593 255.55870938068225 704.682644087955 255.55870938068225L704.682644087955 255.55870938068225Q699.1172304622309 255.55870938068225 696.0683516933559 256.4298176003608Q693.019472924481 257.30092582003937 693.019472924481 258.68018050119707L693.019472924481 258.68018050119707Q699.7947590775365 261.12412300640636 703.4727715606236 262.60016748975056Q707.1265865931642 264.0762119730948 708.7720132303349 265.31028195097275Q710.4416373180521 266.5201544783041 710.6836118235184 267.92360661000845Q710.9497837795312 269.30286129116615 710.9497837795312 271.4080394887227L710.9497837795312 271.4080394887227L710.9497837795312 327.86069161400246Q710.9497837795312 336.91053811844085 711.9176818013964 341.8710154804993Q712.8613823727147 346.83149284255774 714.2648345044191 349.2028429961272Q715.6682866361234 351.5499956991499 717.4830954271205 351.98554980898916Q719.3221016686641 352.4211039188285 721.2337002618476 352.4211039188285L721.2337002618476 352.4211039188285Q748.7703989839086 352.4211039188285 793.0033385831421 327.1589655481504Z " fill="#cd2e3a" transform="matrix(1.0396665621472363,0,0,1.0396665621472363,0,-21.381468897938802)"/></g></svg>